{
	"asset":{
		"generator":"Khronos glTF Blender I/O v4.2.70",
		"version":"2.0"
	},
	"scene":0,
	"scenes":[
		{
			"name":"Scene",
			"nodes":[
				0,
				2,
				3,
				4,
				5
			]
		}
	],
	"nodes":[
		{
			"mesh":0,
			"name":"Cube"
		},
		{
			"name":"Socket_ENTERANCE_03",
			"scale":[
				100,
				100,
				100
			]
		},
		{
			"children":[
				1
			],
			"mesh":1,
			"name":"SM_room_explore_01_a",
			"rotation":[
				0.7071068286895752,
				0,
				0,
				0.7071068286895752
			],
			"scale":[
				0.009999999776482582,
				0.009999999776482582,
				0.009999999776482582
			]
		},
		{
			"name":"Socket_ENTERANCE_03_polyline0",
			"rotation":[
				0.7071068286895752,
				0,
				0,
				0.7071068286895752
			]
		},
		{
			"name":"Socket_ENTERANCE_03_polyline0_polyline1",
			"rotation":[
				0.7071068286895752,
				0,
				0,
				0.7071068286895752
			]
		},
		{
			"name":"Socket_ENTERANCE_03_polyline0_polyline1_polyline2",
			"rotation":[
				0.7071068286895752,
				0,
				0,
				0.7071068286895752
			]
		}
	],
	"materials":[
		{
			"doubleSided":true,
			"name":"Material",
			"pbrMetallicRoughness":{
				"baseColorFactor":[
					0.800000011920929,
					0.800000011920929,
					0.800000011920929,
					1
				],
				"metallicFactor":0,
				"roughnessFactor":0.5
			}
		}
	],
	"meshes":[
		{
			"name":"Cube",
			"primitives":[
				{
					"attributes":{
						"POSITION":0,
						"NORMAL":1,
						"TEXCOORD_0":2
					},
					"indices":3,
					"material":0
				}
			]
		},
		{
			"name":"SM_room_explore_01_a",
			"primitives":[
				{
					"attributes":{
						"POSITION":4,
						"NORMAL":5,
						"TEXCOORD_0":6,
						"COLOR_0":7,
						"COLOR_1":8
					},
					"indices":9
				}
			]
		}
	],
	"accessors":[
		{
			"bufferView":0,
			"componentType":5126,
			"count":24,
			"max":[
				1,
				1,
				1
			],
			"min":[
				-1,
				-1,
				-1
			],
			"type":"VEC3"
		},
		{
			"bufferView":1,
			"componentType":5126,
			"count":24,
			"type":"VEC3"
		},
		{
			"bufferView":2,
			"componentType":5126,
			"count":24,
			"type":"VEC2"
		},
		{
			"bufferView":3,
			"componentType":5123,
			"count":36,
			"type":"SCALAR"
		},
		{
			"bufferView":4,
			"componentType":5126,
			"count":43911,
			"max":[
				11499.880859375,
				5495.95166015625,
				613.7720947265625
			],
			"min":[
				-5094.28271484375,
				-10921.677734375,
				-6881.82080078125
			],
			"type":"VEC3"
		},
		{
			"bufferView":5,
			"componentType":5126,
			"count":43911,
			"type":"VEC3"
		},
		{
			"bufferView":6,
			"componentType":5126,
			"count":43911,
			"type":"VEC2"
		},
		{
			"bufferView":7,
			"componentType":5123,
			"count":43911,
			"normalized":true,
			"type":"VEC4"
		},
		{
			"bufferView":8,
			"componentType":5123,
			"count":43911,
			"normalized":true,
			"type":"VEC4"
		},
		{
			"bufferView":9,
			"componentType":5123,
			"count":213495,
			"type":"SCALAR"
		}
	],
	"bufferViews":[
		{
			"buffer":0,
			"byteLength":288,
			"byteOffset":0,
			"target":34962
		},
		{
			"buffer":0,
			"byteLength":288,
			"byteOffset":288,
			"target":34962
		},
		{
			"buffer":0,
			"byteLength":192,
			"byteOffset":576,
			"target":34962
		},
		{
			"buffer":0,
			"byteLength":72,
			"byteOffset":768,
			"target":34963
		},
		{
			"buffer":0,
			"byteLength":526932,
			"byteOffset":840,
			"target":34962
		},
		{
			"buffer":0,
			"byteLength":526932,
			"byteOffset":527772,
			"target":34962
		},
		{
			"buffer":0,
			"byteLength":351288,
			"byteOffset":1054704,
			"target":34962
		},
		{
			"buffer":0,
			"byteLength":351288,
			"byteOffset":1405992,
			"target":34962
		},
		{
			"buffer":0,
			"byteLength":351288,
			"byteOffset":1757280,
			"target":34962
		},
		{
			"buffer":0,
			"byteLength":426990,
			"byteOffset":2108568,
			"target":34963
		}
	],
	"buffers":[
		{
			"byteLength":2535560,
			"uri":"SM_room_explore_01_a.bin"
		}
	]
}
