<?xml version="1.0" encoding="UTF-8" standalone="no"?>
<svg
   viewBox="0 0 48 48"
   version="1.1"
   id="svg1164"
   sodipodi:docname="feathervisualize.svg"
   inkscape:version="1.3-dev (fdc7329b, 2022-05-31)"
   xmlns:inkscape="http://www.inkscape.org/namespaces/inkscape"
   xmlns:sodipodi="http://sodipodi.sourceforge.net/DTD/sodipodi-0.dtd"
   xmlns:xlink="http://www.w3.org/1999/xlink"
   xmlns="http://www.w3.org/2000/svg"
   xmlns:svg="http://www.w3.org/2000/svg"
   xmlns:rdf="http://www.w3.org/1999/02/22-rdf-syntax-ns#"
   xmlns:cc="http://creativecommons.org/ns#"
   xmlns:dc="http://purl.org/dc/elements/1.1/">
  <sodipodi:namedview
     id="namedview1166"
     pagecolor="#ffffff"
     bordercolor="#666666"
     borderopacity="1.0"
     inkscape:pageshadow="2"
     inkscape:pageopacity="0.0"
     inkscape:pagecheckerboard="0"
     showgrid="false"
     inkscape:zoom="15.6875"
     inkscape:cx="18.390438"
     inkscape:cy="22.661355"
     inkscape:window-width="2560"
     inkscape:window-height="1378"
     inkscape:window-x="-6"
     inkscape:window-y="-6"
     inkscape:window-maximized="1"
     inkscape:current-layer="svg1164"
     inkscape:showpageshadow="2"
     inkscape:deskcolor="#d1d1d1" />
  <defs
     id="defs1122">
    <linearGradient
       inkscape:collect="always"
       id="linearGradient8">
      <stop
         style="stop-color:#096a00;stop-opacity:1;"
         offset="0"
         id="stop7" />
      <stop
         style="stop-color:#000000;stop-opacity:1;"
         offset="1"
         id="stop8" />
    </linearGradient>
    <style
       id="style1106">.cls-1{fill:url(#radial-gradient);}.cls-2{fill:#e099de;}.cls-3{fill:none;stroke:#77497c;stroke-linecap:round;stroke-linejoin:round;stroke-width:0.7px;}.cls-4{fill:#77497c;}.cls-5{fill:#9c579e;}.cls-6{fill:#755076;}.cls-7{fill:url(#linear-gradient);}.cls-8{fill:#f0e7ef;}</style>
    <radialGradient
       id="radial-gradient"
       cx="144.53"
       cy="93.41"
       r="11.94"
       gradientTransform="matrix(1.54,0,0,0.44,-201.32,-0.03)"
       gradientUnits="userSpaceOnUse">
      <stop
         offset="0"
         stop-color="#2c2c2c"
         stop-opacity="0.4"
         id="stop1108" />
      <stop
         offset="0.02"
         stop-color="#2c2c2c"
         stop-opacity="0.39"
         id="stop1110" />
      <stop
         offset="0.52"
         stop-color="#2c2c2c"
         stop-opacity="0.1"
         id="stop1112" />
      <stop
         offset="1"
         stop-color="#2c2c2c"
         stop-opacity="0"
         id="stop1114" />
    </radialGradient>
    <linearGradient
       id="linear-gradient"
       x1="25.7"
       y1="24.72"
       x2="23.03"
       y2="-13.8"
       gradientUnits="userSpaceOnUse"
       gradientTransform="matrix(1.1793048,0,0,1.1763394,-6.070397,-4.1286969)">
      <stop
         offset="0"
         stop-color="#fff"
         stop-opacity="0"
         id="stop1117" />
      <stop
         offset="1"
         stop-color="snow"
         id="stop1119" />
    </linearGradient>
    <radialGradient
       inkscape:collect="always"
       xlink:href="#linearGradient8"
       id="radialGradient8"
       cx="24.216545"
       cy="20.340833"
       fx="24.216545"
       fy="20.340833"
       r="7.3784344"
       gradientTransform="matrix(0.96063927,0,0,2.6346238,0.88460618,-32.529183)"
       gradientUnits="userSpaceOnUse" />
  </defs>
  <title
     id="title1124">1-Feather</title>
  <g
     id="shadow"
     transform="matrix(1,0,0,0.73854581,-2.5498008,13.711031)"
     style="stroke-width:1.16362">
    <ellipse
       class="cls-1"
       cx="20.98"
       cy="41.470001"
       rx="17.66"
       ry="5.1199999"
       id="ellipse1126"
       style="fill:url(#radial-gradient);stroke-width:1.16362" />
  </g>
  <path
     id="path7"
     style="fill:none;stroke:#4e9a06;stroke-width:4;stroke-dasharray:none"
     class="cls-2"
     d="m 22.639708,2.1034647 c -0.504984,-0.0016 -0.931985,0.1251806 -1.236447,0.3517842 -0.974281,0.7251317 -0.293837,2.4594824 -0.112574,5.2353773 a 58.808138,58.81504 0 0 1 0,7.4777668 c -0.113289,1.994112 -0.260963,3.976856 -0.532856,5.959639 a 5.6644325,5.6650974 0 0 1 1.823714,2.537736 5.9703119,5.9710126 0 0 0 -2.003833,-1.314957 c -0.169934,1.065037 -0.362423,2.108674 -0.611659,3.139721 -0.158603,0.7138 -0.329291,1.382199 -0.476566,2.005358 a 16.188949,16.190848 0 0 1 0.555369,7.001825 7.9302055,7.9311364 0 0 0 -1.880001,-2.41358 c -0.135947,0.464538 -0.273146,0.860214 -0.397764,1.222781 a 4.2256666,4.2261626 0 0 0 0.386506,3.559227 l 0.247666,0.417627 a 9.6521931,9.6533263 0 0 1 0.998164,2.266845 6.3101778,6.3109186 0 0 1 2.480401,-1.653575 7.216487,7.2173342 0 0 1 1.245829,-0.261486 3.3986595,3.3990584 0 0 0 2.718684,-1.337533 c 0.158605,-0.260595 0.35145,-0.542332 0.555369,-0.89357 a 2.0391957,2.0394351 0 0 1 -0.838682,0.158021 15.713136,15.71498 0 0 0 -2.264633,-0.351784 12.461752,12.463215 0 0 0 2.581718,-0.327329 4.7807811,4.7813422 0 0 0 1.57605,-1.371394 4.1463647,4.1468513 0 0 1 -2.050741,0.442081 14.27437,14.276045 0 0 0 -3.512336,-0.216336 l 0.476567,-1.279216 c 0.271892,-0.589171 1.131377,-3.559228 1.131377,-3.559228 a 3.2287266,3.2291055 0 0 1 2.266509,-1.042185 4.9847005,4.9852857 0 0 0 3.987028,-1.766446 c 0.237906,-1.076368 0.430465,-2.176184 0.600399,-3.263881 -0.124618,0 -1.132317,0.476578 -2.174572,0.805154 a 3.7611832,3.7616246 0 0 1 -1.778684,0.203169 c 0,0 2.956909,-0.815377 4.157768,-2.582887 a 24.583637,24.586523 0 0 0 0.136966,-4.849731 2.8208875,2.8212184 0 0 1 -1.564791,1.134364 16.17762,16.179519 0 0 1 -1.789943,0.180595 4.8487542,4.8493233 0 0 0 3.001998,-3.886559 C 29.695964,9.7180039 28.427809,6.3194021 26.660509,4.2912993 25.242986,2.7333991 23.750676,2.1069942 22.639708,2.1034647 Z m 6.921481,25.8570813 a 7.1031984,7.1040321 0 0 1 -2.788104,0.349904 4.0557338,4.0562098 0 0 0 -3.047029,0.714855 l -1.23457,4.349332 a 25.512603,25.515598 0 0 0 3.874453,-0.338614 8.9158168,8.9168633 0 0 0 1.902515,-0.645252 14.161081,14.162744 0 0 0 1.292735,-4.430225 z" />
  <path
     id="path1129"
     style="fill:url(#radialGradient8);fill-opacity:1;stroke:#8ae234;stroke-width:2;stroke-dasharray:none"
     class="cls-2"
     d="m 22.639708,2.1034647 c -0.504984,-0.0016 -0.931985,0.1251806 -1.236447,0.3517842 -0.974281,0.7251317 -0.293837,2.4594824 -0.112574,5.2353773 a 58.808138,58.81504 0 0 1 0,7.4777668 c -0.113289,1.994112 -0.260963,3.976856 -0.532856,5.959639 a 5.6644325,5.6650974 0 0 1 1.823714,2.537736 5.9703119,5.9710126 0 0 0 -2.003833,-1.314957 c -0.169934,1.065037 -0.362423,2.108674 -0.611659,3.139721 -0.158603,0.7138 -0.329291,1.382199 -0.476566,2.005358 a 16.188949,16.190848 0 0 1 0.555369,7.001825 7.9302055,7.9311364 0 0 0 -1.880001,-2.41358 c -0.135947,0.464538 -0.273146,0.860214 -0.397764,1.222781 a 4.2256666,4.2261626 0 0 0 0.386506,3.559227 l 0.247666,0.417627 a 9.6521931,9.6533263 0 0 1 0.998164,2.266845 6.3101778,6.3109186 0 0 1 2.480401,-1.653575 7.216487,7.2173342 0 0 1 1.245829,-0.261486 3.3986595,3.3990584 0 0 0 2.718684,-1.337533 c 0.158605,-0.260595 0.35145,-0.542332 0.555369,-0.89357 a 2.0391957,2.0394351 0 0 1 -0.838682,0.158021 15.713136,15.71498 0 0 0 -2.264633,-0.351784 12.461752,12.463215 0 0 0 2.581718,-0.327329 4.7807811,4.7813422 0 0 0 1.57605,-1.371394 4.1463647,4.1468513 0 0 1 -2.050741,0.442081 14.27437,14.276045 0 0 0 -3.512336,-0.216336 l 0.476567,-1.279216 c 0.271892,-0.589171 1.131377,-3.559228 1.131377,-3.559228 a 3.2287266,3.2291055 0 0 1 2.266509,-1.042185 4.9847005,4.9852857 0 0 0 3.987028,-1.766446 c 0.237906,-1.076368 0.430465,-2.176184 0.600399,-3.263881 -0.124618,0 -1.132317,0.476578 -2.174572,0.805154 a 3.7611832,3.7616246 0 0 1 -1.778684,0.203169 c 0,0 2.956909,-0.815377 4.157768,-2.582887 a 24.583637,24.586523 0 0 0 0.136966,-4.849731 2.8208875,2.8212184 0 0 1 -1.564791,1.134364 16.17762,16.179519 0 0 1 -1.789943,0.180595 4.8487542,4.8493233 0 0 0 3.001998,-3.886559 C 29.695964,9.7180039 28.427809,6.3194021 26.660509,4.2912993 25.242986,2.7333991 23.750676,2.1069942 22.639708,2.1034647 Z m 6.921481,25.8570813 a 7.1031984,7.1040321 0 0 1 -2.788104,0.349904 4.0557338,4.0562098 0 0 0 -3.047029,0.714855 l -1.23457,4.349332 a 25.512603,25.515598 0 0 0 3.874453,-0.338614 8.9158168,8.9168633 0 0 0 1.902515,-0.645252 14.161081,14.162744 0 0 0 1.292735,-4.430225 z" />
  <path
     class="cls-4"
     d="m 15.716995,43.595409 a 95.355057,95.366249 0 0 0 4.452243,-8.871542 66.840304,66.848149 0 0 0 3.398661,-9.358741 43.11766,43.122722 0 0 0 1.257503,-9.743966 42.449257,42.45424 0 0 0 -0.894981,-9.9139217 0.11328865,0.11330194 0 0 1 0.0793,-0.1359622 0.11328865,0.11330194 0 0 1 0.113288,0.067981 27.053331,27.056505 0 0 1 2.209129,9.9819019 39.945579,39.950266 0 0 1 -0.928966,10.197174 80.604875,80.614336 0 0 1 -2.945507,9.834609 95.513662,95.524872 0 0 1 -4.067061,9.426722 1.5325932,1.5327732 0 0 1 -2.741586,-1.370954 0.23790617,0.23793409 0 0 0 0,-0.06798 z"
     id="path1133"
     style="fill:#000000;stroke-width:0.999998" />
  <metadata
     id="metadata1225">
    <rdf:RDF>
      <cc:Work
         rdf:about="">
        <dc:title>1-Feather</dc:title>
      </cc:Work>
    </rdf:RDF>
  </metadata>
  <path
     id="path8"
     style="fill:none;fill-opacity:1;stroke:#bfffc2;stroke-width:0.5;stroke-dasharray:none;stroke-opacity:1"
     class="cls-2"
     d="m 22.639708,2.1034647 c -0.504984,-0.0016 -0.931985,0.1251806 -1.236447,0.3517842 -0.974281,0.7251317 -0.293837,2.4594824 -0.112574,5.2353773 a 58.808138,58.81504 0 0 1 0,7.4777668 c -0.113289,1.994112 -0.260963,3.976856 -0.532856,5.959639 a 5.6644325,5.6650974 0 0 1 1.823714,2.537736 5.9703119,5.9710126 0 0 0 -2.003833,-1.314957 c -0.169934,1.065037 -0.362423,2.108674 -0.611659,3.139721 -0.158603,0.7138 -0.329291,1.382199 -0.476566,2.005358 a 16.188949,16.190848 0 0 1 0.555369,7.001825 7.9302055,7.9311364 0 0 0 -1.880001,-2.41358 c -0.135947,0.464538 -0.273146,0.860214 -0.397764,1.222781 a 4.2256666,4.2261626 0 0 0 0.386506,3.559227 l 0.247666,0.417627 a 9.6521931,9.6533263 0 0 1 0.998164,2.266845 6.3101778,6.3109186 0 0 1 2.480401,-1.653575 7.216487,7.2173342 0 0 1 1.245829,-0.261486 3.3986595,3.3990584 0 0 0 2.718684,-1.337533 c 0.158605,-0.260595 0.35145,-0.542332 0.555369,-0.89357 a 2.0391957,2.0394351 0 0 1 -0.838682,0.158021 15.713136,15.71498 0 0 0 -2.264633,-0.351784 12.461752,12.463215 0 0 0 2.581718,-0.327329 4.7807811,4.7813422 0 0 0 1.57605,-1.371394 4.1463647,4.1468513 0 0 1 -2.050741,0.442081 14.27437,14.276045 0 0 0 -3.512336,-0.216336 l 0.476567,-1.279216 c 0.271892,-0.589171 1.131377,-3.559228 1.131377,-3.559228 a 3.2287266,3.2291055 0 0 1 2.266509,-1.042185 4.9847005,4.9852857 0 0 0 3.987028,-1.766446 c 0.237906,-1.076368 0.430465,-2.176184 0.600399,-3.263881 -0.124618,0 -1.132317,0.476578 -2.174572,0.805154 a 3.7611832,3.7616246 0 0 1 -1.778684,0.203169 c 0,0 2.956909,-0.815377 4.157768,-2.582887 a 24.583637,24.586523 0 0 0 0.136966,-4.849731 2.8208875,2.8212184 0 0 1 -1.564791,1.134364 16.17762,16.179519 0 0 1 -1.789943,0.180595 4.8487542,4.8493233 0 0 0 3.001998,-3.886559 C 29.695964,9.7180039 28.427809,6.3194021 26.660509,4.2912993 25.242986,2.7333991 23.750676,2.1069942 22.639708,2.1034647 Z m 6.921481,25.8570813 a 7.1031984,7.1040321 0 0 1 -2.788104,0.349904 4.0557338,4.0562098 0 0 0 -3.047029,0.714855 l -1.23457,4.349332 a 25.512603,25.515598 0 0 0 3.874453,-0.338614 8.9158168,8.9168633 0 0 0 1.902515,-0.645252 14.161081,14.162744 0 0 0 1.292735,-4.430225 z" />
  <path
     class="cls-8"
     d="m 16.453371,44.014627 a 96.114092,96.125372 0 0 0 4.350284,-9.064156 69.366641,69.374782 0 0 0 3.251384,-9.483372 42.313311,42.318278 0 0 0 1.20086,-9.845939 35.969146,35.973368 0 0 0 -1.268833,-9.9365818 0.0283255,0 90 0 0 0,-0.056651 c 0,0 0.05665,0 0.05665,0 a 25.240712,25.243674 0 0 1 1.336806,4.8946428 34.553037,34.557094 0 0 1 0.532456,5.09859 40.557338,40.562098 0 0 1 -1.030926,10.117862 75.291637,75.300475 0 0 1 -3.058794,9.698647 93.202573,93.213512 0 0 1 -4.180351,9.290761 0.66840304,0.66848149 0 0 1 -0.906309,0.283254 0.6797319,0.67981169 0 0 1 -0.29455,-0.917745 v 0 z"
     id="path6"
     style="fill:#8ae234;stroke:#4e9a06;stroke-width:2;stroke-dasharray:none" />
  <path
     class="cls-8"
     d="m 16.453371,44.014627 a 96.114092,96.125372 0 0 0 4.350284,-9.064156 69.366641,69.374782 0 0 0 3.251384,-9.483372 42.313311,42.318278 0 0 0 1.20086,-9.845939 35.969146,35.973368 0 0 0 -1.268833,-9.9365818 0.0283255,0 90 0 0 0,-0.056651 c 0,0 0.05665,0 0.05665,0 a 25.240712,25.243674 0 0 1 1.336806,4.8946428 34.553037,34.557094 0 0 1 0.532456,5.09859 40.557338,40.562098 0 0 1 -1.030926,10.117862 75.291637,75.300475 0 0 1 -3.058794,9.698647 93.202573,93.213512 0 0 1 -4.180351,9.290761 0.66840304,0.66848149 0 0 1 -0.906309,0.283254 0.6797319,0.67981169 0 0 1 -0.29455,-0.917745 v 0 z"
     id="path1161"
     style="fill:#8ae234;stroke-width:0.999998" />
</svg>
